<svg width="674.9999999999999" height="245.862509250934" viewBox="0 0 370 134.76907914495644" class="looka-1j8o68f"><defs id="SvgjsDefs1122"></defs><g id="SvgjsG1123" featurekey="HKaMnE-0" transform="matrix(3.3332223892211914,0,0,3.3332223892211914,-277.3238943913357,-262.4376891232109)" fill="#111111"><path xmlns="http://www.w3.org/2000/svg" d="M100.666,95.834c0-0.368-0.298-0.667-0.666-0.667s-0.666,0.298-0.666,0.667c0,6.771-4.846,12.448-11.521,13.499  c-0.364,0.058-0.612,0.397-0.555,0.763c0.052,0.327,0.334,0.563,0.657,0.563c0.034,0,0.069-0.004,0.104-0.01  C95.348,109.495,100.666,103.266,100.666,95.834z"></path><path xmlns="http://www.w3.org/2000/svg" d="M100,80.834c-8.271,0-15,6.729-15,15c0,0.368,0.298,0.666,0.667,0.666c0.368,0,0.666-0.298,0.666-0.666  c0-7.537,6.131-13.668,13.668-13.668c7.536,0,13.668,6.131,13.668,13.668c0,3.064-0.494,6.077-1.47,8.954  c-0.118,0.349,0.068,0.726,0.418,0.844c0.07,0.024,0.143,0.035,0.213,0.035c0.277,0,0.537-0.174,0.632-0.452  c1.021-3.015,1.539-6.17,1.539-9.381C115,87.563,108.271,80.834,100,80.834z"></path><path xmlns="http://www.w3.org/2000/svg" d="M103.532,95.834c0-1.948-1.585-3.532-3.532-3.532c-1.949,0-3.534,1.584-3.534,3.532c0,5.581-4.185,10.201-9.734,10.747  c-0.366,0.037-0.633,0.362-0.597,0.729c0.036,0.365,0.36,0.631,0.728,0.598c6.234-0.614,10.935-5.805,10.935-12.073  c0-1.213,0.988-2.2,2.202-2.2c1.213,0,2.2,0.987,2.2,2.2c0,7.647-5.412,14.429-12.867,16.126c-0.358,0.081-0.583,0.438-0.502,0.797  c0.071,0.309,0.345,0.52,0.649,0.52c0.049,0,0.099-0.006,0.149-0.019C97.685,111.425,103.532,104.098,103.532,95.834z"></path><path xmlns="http://www.w3.org/2000/svg" d="M100.604,116.966c-0.021-0.024-0.045-0.051-0.065-0.077c-0.21-0.291-0.613-0.363-0.911-0.164  c-0.604,0.404-1.19,0.764-1.79,1.094c-0.322,0.179-0.438,0.584-0.26,0.906c0.177,0.321,0.583,0.438,0.905,0.26  c0.468-0.258,0.927-0.531,1.391-0.828c0.242,0.271,0.5,0.546,0.77,0.814c0.131,0.131,0.301,0.195,0.471,0.195  c0.171,0,0.342-0.064,0.472-0.195c0.26-0.26,0.26-0.682,0-0.941C101.234,117.682,100.908,117.327,100.604,116.966z"></path><path xmlns="http://www.w3.org/2000/svg" d="M103.342,110.811c-0.477-0.935-0.833-1.938-1.058-2.979c-0.056-0.254-0.253-0.453-0.507-0.509  c-0.254-0.058-0.518,0.038-0.676,0.245c-2.479,3.258-5.841,5.611-9.725,6.808c-0.351,0.108-0.548,0.481-0.44,0.833  s0.481,0.549,0.833,0.439c3.729-1.148,7.009-3.295,9.557-6.242c0.223,0.693,0.499,1.365,0.827,2.011  c1.068,2.097,2.676,3.897,4.647,5.21c0.109,0.072,0.24,0.111,0.371,0.111c0.368,0,0.665-0.299,0.666-0.666  c0-0.239-0.127-0.448-0.315-0.566C105.749,114.32,104.303,112.698,103.342,110.811z"></path><path xmlns="http://www.w3.org/2000/svg" d="M111.404,111.141c-2.258-1.127-3.661-3.388-3.661-5.902c0-0.545,0.067-1.092,0.202-1.621  c0.531-1.51,0.904-3.075,1.113-4.652c0.137-1.008,0.207-2.061,0.207-3.13c0-5.109-4.158-9.266-9.267-9.266  c-5.109,0-9.266,4.157-9.266,9.266c0,2.77-2.251,5.042-5.019,5.063c-0.368,0.004-0.664,0.305-0.661,0.672  c0.003,0.367,0.301,0.662,0.666,0.662c0.002,0,0.004,0,0.006,0c3.496-0.029,6.34-2.899,6.34-6.397c0-4.375,3.559-7.934,7.934-7.934  s7.935,3.559,7.935,7.934c0,1.009-0.065,2.002-0.195,2.953c-0.198,1.498-0.555,2.983-1.059,4.415  c-0.006,0.018-0.012,0.036-0.017,0.054c-0.168,0.647-0.253,1.313-0.253,1.982c0,3.022,1.688,5.741,4.4,7.094  c0.096,0.048,0.196,0.069,0.297,0.069c0.244,0,0.479-0.135,0.597-0.369C111.868,111.703,111.734,111.303,111.404,111.141z"></path><path xmlns="http://www.w3.org/2000/svg" d="M109.688,113.477c-2.969-1.676-4.813-4.832-4.813-8.238c0-0.82,0.107-1.641,0.32-2.439c0.32-0.896,0.584-1.842,0.783-2.808  c0.278-1.363,0.42-2.762,0.42-4.156c0-3.528-2.871-6.398-6.399-6.398c-3.529,0-6.401,2.871-6.401,6.398  c0,4.247-3.318,7.728-7.555,7.925c-0.367,0.018-0.651,0.328-0.634,0.695c0.017,0.368,0.335,0.652,0.696,0.635  c4.949-0.23,8.826-4.295,8.826-9.254c0-2.794,2.273-5.066,5.068-5.066c2.794,0,5.067,2.273,5.067,5.066  c0,1.305-0.133,2.613-0.393,3.887c-0.189,0.917-0.439,1.815-0.746,2.666c-0.01,0.027-0.019,0.057-0.023,0.086  c-0.24,0.904-0.361,1.834-0.361,2.766c0,3.886,2.104,7.486,5.49,9.396c0.104,0.059,0.216,0.086,0.326,0.086  c0.231,0,0.459-0.121,0.58-0.34C110.122,114.063,110.009,113.656,109.688,113.477z"></path><path xmlns="http://www.w3.org/2000/svg" d="M112.741,108.602c-1.296-0.613-2.132-1.934-2.132-3.363c0-0.275,0.031-0.553,0.095-0.824l0.011-0.027  c0.004-0.011,0.008-0.02,0.012-0.029c0.424-1.241,0.754-2.518,0.98-3.787c0.248-1.359,0.389-2.75,0.416-4.121  c0.008-0.202,0.011-0.406,0.011-0.613c0-6.691-5.442-12.134-12.134-12.134c-6.691,0-12.134,5.443-12.134,12.134  c0,1.196-0.974,2.184-2.17,2.2c-0.368,0.005-0.662,0.307-0.657,0.675s0.298,0.65,0.675,0.657c1.921-0.026,3.484-1.611,3.484-3.532  c0-5.956,4.845-10.802,10.802-10.802c5.956,0,10.801,4.846,10.801,10.802c0,0.19-0.002,0.376-0.01,0.574  c-0.025,1.312-0.159,2.631-0.396,3.925c-0.213,1.201-0.524,2.405-0.926,3.578c-0.014,0.034-0.025,0.067-0.037,0.103  c-0.006,0.019-0.012,0.035-0.016,0.053c-0.093,0.386-0.141,0.779-0.141,1.173c0,1.94,1.137,3.733,2.895,4.565  c0.092,0.043,0.188,0.063,0.284,0.063c0.25,0,0.487-0.142,0.603-0.381C113.215,109.154,113.073,108.758,112.741,108.602z"></path><path xmlns="http://www.w3.org/2000/svg" d="M102.795,115.117c-0.604-0.71-1.141-1.467-1.592-2.247c-0.1-0.172-0.27-0.29-0.467-0.323  c-0.194-0.031-0.396,0.021-0.545,0.152c-1.813,1.564-3.849,2.82-6.052,3.73c-0.261,0.09-0.448,0.338-0.448,0.631  c0,0.367,0.3,0.666,0.667,0.666c0.087,0,0.173-0.018,0.254-0.051c2.108-0.867,4.073-2.033,5.85-3.468  c0.396,0.612,0.837,1.205,1.319,1.771c0.671,0.791,1.429,1.526,2.253,2.187c0.122,0.099,0.271,0.146,0.416,0.146  c0.194,0,0.389-0.084,0.521-0.248c0.229-0.287,0.184-0.707-0.104-0.938C104.107,116.52,103.412,115.846,102.795,115.117z"></path></g><g id="SvgjsG1124" featurekey="J3GnXt-0" transform="matrix(4.389045238494873,0,0,4.389045238494873,114.0308950551718,19.581459827607294)" fill="#111111"><path d="M3.16 4.880000000000001 l0 9.76 l4.1 -4.12 l2.5 0 l-4.44 4.32 l4.8 5.16 l-2.56 0 l-4.4 -4.92 l0 4.92 l-1.8 0 l0 -15.12 l1.8 0 z M16.700000000000003 10.28 c1.0667 0 1.9033 0.32 2.51 0.96 s0.91666 1.5 0.93 2.58 l0 6.18 l-1.8 0 l0 -5.66 c0 -0.73334 -0.19 -1.3133 -0.57 -1.74 s-0.91 -0.64 -1.59 -0.64 c-0.84 0 -1.49 0.28 -1.95 0.84 s-0.69 1.3067 -0.69 2.24 l0 4.96 l-1.8 0 l0 -9.48 l1.8 0 l0 1.46 l0.04 0 c0.25334 -0.53334 0.66334 -0.95 1.23 -1.25 s1.1967 -0.45 1.89 -0.45 z M27.44 10.28 c1.4 0 2.5866 0.48338 3.56 1.45 s1.4667 2.1434 1.48 3.53 c0 1.4 -0.48666 2.5734 -1.46 3.52 s-2.1666 1.4333 -3.58 1.46 c-1.3867 0 -2.5666 -0.48 -3.54 -1.44 s-1.4733 -2.14 -1.5 -3.54 c0 -1.3733 0.48334 -2.54 1.45 -3.5 s2.1634 -1.4533 3.59 -1.48 z M24.32 15.26 c0 0.97334 0.28664 1.7633 0.85998 2.37 s1.3267 0.91666 2.26 0.93 c0.94666 0 1.7 -0.30334 2.26 -0.91 s0.84666 -1.4033 0.86 -2.39 c0 -0.97334 -0.28 -1.7633 -0.84 -2.37 s-1.3267 -0.91666 -2.3 -0.93 c-0.94666 0 -1.7 0.31334 -2.26 0.94 s-0.84 1.4133 -0.84 2.36 z M35.620000000000005 10.52 l2.14 7.08 l0.04 0 l2.26 -7.08 l1.9 0 l2.4 7.08 l0.04 0 l2.04 -7.08 l1.9 0 l-3.06 9.48 l-1.82 0 l-2.5 -7.08 l-0.04 0 l-2.26 7.08 l-1.94 0 l-3.12 -9.48 l2.02 0 z M51.72 10.52 l0 5.68 c0 0.74666 0.19666 1.3267 0.59 1.74 s0.91668 0.62 1.57 0.62 c0.84 0 1.49 -0.27666 1.95 -0.83 s0.69 -1.3033 0.69 -2.25 l0 -4.96 l1.8 0 l0 9.48 l-1.8 0 l0 -1.46 l-0.04 0 c-0.25334 0.53334 -0.66668 0.95 -1.24 1.25 s-1.2 0.45 -1.88 0.45 c-1.0533 0 -1.89 -0.32666 -2.51 -0.98 s-0.93 -1.5067 -0.93 -2.56 l0 -6.18 l1.8 0 z"></path></g></svg>